<?xml version="1.0" encoding="UTF-8"?>
<svg id="Layer_1" xmlns="http://www.w3.org/2000/svg" viewBox="0 0 1133.86 1133.86">
  <defs>
    <style>
      .cls-1 {
        fill: #fff;
      }
    </style>
  </defs>
  <path class="cls-1" d="M1061.67,566.89c.03,273.24-221.79,494.98-494.97,494.8-274.16-.18-495.24-221.81-494.51-497.02.73-272.98,222.96-492.66,494.82-492.52,273.19.14,494.63,221.61,494.66,494.74ZM1051.13,567.07c.08-266.5-216.31-483.48-481.75-484.46-267.67-.99-486.6,215.27-486.75,484-.15,266.87,216.31,483.84,482.28,484.64,266.32.8,485.9-214.21,486.22-484.18Z"/>
  <g>
    <path class="cls-1" d="M248.14,549.25c0-10.42-.79-20.91.12-31.25,7.49-84.66,42.27-156.93,100.14-218.54,18.71-19.92,41.49-34.53,64.65-48.56,33.44-20.26,68.59-36.66,107.02-44.83,63.36-13.48,125.62-8.71,186.52,13.12,30.68,11,60.14,24.67,87.44,42.66,28.02,18.46,51.46,41.7,70.86,68.95,11.92,16.73,23.5,33.74,34.49,51.09,17.23,27.2,26.43,57.54,33.41,88.7,6.59,29.41,8.07,59.15,6.76,89.12-.1,2.18-.59,4.35-.9,6.52-.42.03-.83.06-1.25.09-.28-2.03-.62-4.05-.82-6.09-2.09-21.21-4.47-42.42-10.3-62.98-12.77-45.06-34.67-85.54-63.2-122.44-39.95-51.68-90.99-88.89-152.11-111.27-39.03-14.29-80-20.71-121.68-21.3-50.27-.72-96.88,13.05-142.21,34.06-70.27,32.57-120.3,85.52-158.1,151.56-20.83,36.38-33.39,75.48-38.08,117.12-.17,1.5-.63,2.97-.95,4.45l-1.81-.2Z"/>
    <path class="cls-1" d="M719.2,845.89c-1.63,1.24-3.22,2.54-4.9,3.71-14.77,10.21-31.17,17.13-47.82,23.53-25.03,9.62-50.33,18.27-76.99,22.24-31.05,4.63-62.09,4.2-93.11-.06-39.2-5.37-77.13-15.68-113.49-31.21-32.89-14.04-60.49-35.93-85.75-60.86-51.79-51.11-85.28-112.28-100.35-183.47-6.25-29.49-7.05-59.3-4.6-89.26,1.8-22,4.65-43.84,9.62-65.37,5.83-25.25,16.76-48.46,29.19-70.94,9.33-16.88,19.55-33.28,29.77-49.65,8.82-14.12,19.7-26.64,31.93-37.93,23.08-21.29,47.96-40.09,76.02-54.44,1.88-.96,3.84-1.76,5.79-2.59.41-.18.92-.13,2.1-.28-4.33,3.42-8.34,6.14-11.83,9.42-15.71,14.75-31.73,29.22-46.7,44.69-8.69,8.97-15.91,19.43-23.28,29.6-25.88,35.75-44.97,74.84-56.88,117.39-4.05,14.48-5.61,29.33-6.77,44.24-2.85,36.7-1.59,73.19,5.92,109.34,6.98,33.6,19.38,65.1,36.83,94.61,19.25,32.55,42.06,62.34,69.44,88.53,47.55,45.48,104.15,72.64,168.83,83.54,30.85,5.2,61.82,7.44,93.04,4.5,26.3-2.48,51.75-8.95,76.83-16.91,11.26-3.57,22.28-7.94,33.4-11.95,1.11-.4,2.21-.79,3.32-1.19l.44.76Z"/>
    <path class="cls-1" d="M391.33,900.01c2.16.9,4.35,1.72,6.47,2.71,21.89,10.27,45.47,14.41,68.89,19.25,59.77,12.35,118.88,8.5,176.95-8.82,43.61-13,81.86-36.19,117.03-65.18,56.96-46.96,89.38-108.8,111.06-177.58,2.58-18.74,5.95-37.41,7.58-56.23,4.29-49.53-2.57-98.06-19.36-144.5-19.77-54.69-51.59-102.12-95.12-141.17-8.23-7.38-17.42-13.69-26.17-20.5-1.04-.81-2.09-1.61-2.78-3.11,1.43.58,2.88,1.12,4.29,1.74,24.59,10.9,45.62,26.84,64.87,45.41,53.17,51.32,89.03,112.62,106.4,184.53,7.41,30.69,8.36,61.9,6.04,93.24-1.75,23.61-3.92,47.2-10.47,70.09-17.29,60.47-47.62,113.04-93.83,156.25-27.01,25.26-55.6,48.07-89.46,63.55-50.97,23.29-104.32,35.48-160.53,33.88-48.6-1.38-95.01-11.99-138.62-33.87-9.34-4.68-18.51-9.7-27.69-14.69-2.15-1.17-4.02-2.86-6.02-4.31.15-.23.31-.46.46-.69Z"/>
  </g>
  <path class="cls-1" d="M461.13,709.29c-26.77-1.9-53.55-3.58-80.29-5.77-22.3-1.82-44.55-4.29-66.84-6.36-5.18-.48-10.41-.48-15.62-.72-2.89-.13-5.79-.56-6.99-3.65-5.43-13.95-10.88-27.89-16.02-41.95-1.01-2.77-1.09-6.03-.95-9.04.52-11.15,5.78-18.62,17.02-21.46,4.92-1.24,9.77-2.84,14.53-4.58,7.99-2.93,11.97-8.94,11.72-17.33-.18-5.95-1.16-11.88-1.73-17.82-.27-2.78-.48-5.57-.57-8.36-.23-7.44,2.94-12.88,9.46-16.58,6.19-3.51,12.1-7.52,18.36-10.9,5.22-2.82,8.62-6.91,9.54-12.59,1.72-10.64,2.92-21.37,4.54-32.03.42-2.73,1.62-5.33,2.46-8,2.48,1.04,5.41,1.54,7.36,3.2,24.72,20.94,49.6,41.72,73.82,63.23,21.38,18.98,41.98,38.85,62.94,58.3,1.58,1.47,3.36,2.72,5.02,4.09,4.25,3.52,4.7,5.22,2.36,10.2-4.47,9.55-9.1,19.04-13.53,28.61-6.79,14.64-13.58,29.28-20.14,44.03-1.97,4.43-4.57,6.74-9.61,5.94-2.23-.35-4.56-.06-6.85-.06,0-.13,0-.26,0-.4ZM452.71,689.01c.68-.48,1.87-1.31,3.06-2.14-1.11-1.01-2.19-2.07-3.37-2.99-.35-.27-.98-.17-1.48-.26-21.13-3.73-42.28-7.41-63.4-11.2-17-3.05-33.96-6.28-50.97-9.27-2.5-.44-6.46-2.12-7.08,1.75-.6,3.78,3.46,3.93,6.29,4.41,29.53,5.03,59.06,10.04,88.59,15.03,9.14,1.54,18.29,3.01,28.35,4.66ZM464.37,652.03c.76-.48,2.34-1.03,2.34-1.59,0-1.03-.73-2.25-1.51-3.04-.66-.66-1.81-.84-2.76-1.21-28.08-10.81-56.17-21.62-84.26-32.4-3.79-1.45-7.61-2.86-11.5-4.01-1.08-.32-2.47.38-3.71.62.42,1.38.46,3.11,1.34,4.04,1.07,1.12,2.8,1.68,4.33,2.26,30.69,11.45,61.39,22.87,92.09,34.28,1.06.39,2.17.63,3.65,1.05ZM385.77,556.55c.53.76,1.33,2.49,2.64,3.69,2.24,2.05,4.8,3.75,7.19,5.63,24.33,19.18,48.65,38.36,72.99,57.53,1.49,1.18,2.97,2.45,4.66,3.27.92.45,2.26.03,3.41,0-.34-1-.61-2.04-1.06-3-.19-.42-.75-.66-1.14-.99-27.28-22.41-54.56-44.83-81.85-67.23-1.07-.88-2.19-1.78-3.43-2.34-2.19-.97-3.41-.12-3.4,3.41Z"/>
  <path class="cls-1" d="M789.34,764.84c-2.52-.27-5.07-.4-7.55-.85-9.71-1.76-18.49.35-26.21,6.4-10.62,8.3-22.73,10.14-35.68,8.75-7.35-.79-14.15-3.17-18.61-9.24-8.99-12.24-21.03-14.12-34.65-10.99-10.27,2.36-20.49,4.96-30.65,7.72-13.07,3.55-25.86,3.6-38.39-2.05-6.91-3.11-7.61-4.53-5.31-11.76,12.62-39.57,25.39-79.1,37.86-118.72,3.05-9.68,5.23-19.64,7.67-29.5,1.54-6.22,2.32-7.09,8.69-7.2,6.36-.11,12.72-.17,19.07,0,15.84.4,31.41-1.62,46.91-4.66,3.44-.68,7.08-.72,10.6-.58,5.13.22,8.12,3.64,10.5,7.81,9.61,16.9,19.85,33.48,28.78,50.73,15.24,29.44,29.72,59.27,44.37,89.01,1.24,2.52,1.83,5.61,1.86,8.45.12,10.48-5.35,16.02-15.8,16.46-1.14.05-2.29,0-3.43,0l-.02.22ZM686.98,629.03c.24.1.48.21.71.31.37,4.68.7,9.35,1.12,14.03,2.23,24.63,4.5,49.26,6.74,73.89.53,5.81.82,11.66,1.74,17.41.23,1.46,2.4,3.56,3.8,3.66,2.42.17,3.08-2.15,2.87-4.42-.03-.38-.06-.76-.1-1.14-2.77-27.43-5.52-54.87-8.35-82.29-.75-7.32-1.61-14.64-2.78-21.89-.21-1.29-2.22-2.28-3.39-3.41-.79,1.29-1.58,2.58-2.37,3.87ZM758.31,734.68c-.58-1.94-.99-3.4-1.46-4.84-9.96-30.7-19.9-61.41-29.96-92.09-.73-2.22-2.06-4.36-3.57-6.16-.77-.92-2.55-.98-3.88-1.43-.39,1.44-.95,2.85-1.11,4.32-.09.81.47,1.69.76,2.53,8.32,24.15,16.64,48.3,24.98,72.44,2.9,8.41,5.77,16.83,8.9,25.16.45,1.19,2.28,1.85,3.47,2.75.65-.94,1.31-1.88,1.86-2.67ZM661.08,625.18c-.49-.12-.98-.23-1.47-.35-.6,1.15-1.39,2.25-1.79,3.47-10.61,32.47-21.18,64.95-31.78,97.43-.79,2.42-1.12,4.73,1.89,5.57,3.11.87,3.41-1.8,4.01-3.83,3.83-12.9,7.65-25.81,11.46-38.72,5.61-19,11.25-37.99,16.78-57.01.61-2.09.61-4.36.9-6.54Z"/>
  <path class="cls-1" d="M585.68,499.05c-1.44-.71-3.21-1.21-4.5-2.29-1.83-1.54-3.43-3.4-4.91-5.3-14.74-18.81-29.42-37.68-44.18-56.47-1.86-2.36-1.82-4.62-.57-7.07,10.31-20.13,19.99-40.61,31.1-60.28,17-30.1,34.96-59.65,52.62-89.37,1.16-1.95,3.23-3.36,4.87-5.02,1.09,1.9,2.69,3.68,3.19,5.73,3.81,15.6,10.83,29.78,18.63,43.69,3.74,6.67,8.29,12.52,14.42,17.02,12.08,8.86,23.84,18.16,37.66,24.45,13.74,6.26,19.43,18.71,22.94,32.42,1.17,4.55,1.96,9.19,2.99,13.78,3.6,16.04,13.62,25.91,29.2,30.57,2.2.66,4.13,2.23,6.19,3.38-2.25,1.35-4.34,3.32-6.79,3.97-36.7,9.78-73.71,18.49-109.55,31.26-15.8,5.63-31.42,11.75-47.14,17.61-1.89.71-3.86,1.21-6.17,1.92ZM592.96,467.74c2.25-.66,4.23-1.14,6.14-1.8,30.97-10.71,61.93-21.43,92.89-32.18,1.91-.66,3.94-1.29,5.54-2.45,1.12-.82,1.6-2.52,2.37-3.83-1.54-.88-3-2.03-4.66-2.52-.91-.27-2.18.49-3.24.89-26.04,9.78-52.07,19.57-78.11,29.35-7.01,2.64-14.07,5.17-21.03,7.94-1.05.42-1.69,1.89-2.52,2.87.9.59,1.79,1.19,2.62,1.73ZM662.51,379.91c-.08-2.93-2.32-4.06-4.62-2.7-2.72,1.6-5.34,3.47-7.72,5.54-9.01,7.84-17.87,15.84-26.86,23.71-13.3,11.63-26.66,23.18-39.97,34.78-1.8,1.57-3.61,3.64-1.58,5.81,2.11,2.27,3.85-.16,5.42-1.5,7.72-6.63,15.41-13.29,23.12-19.92,16.49-14.18,32.99-28.34,49.46-42.55,1.19-1.03,2.1-2.38,2.76-3.15ZM564.2,431.82c1.64-1.54,2.88-2.43,3.77-3.59,4.12-5.33,8.14-10.73,12.2-16.1,13.96-18.44,27.96-36.84,41.84-55.33,1.88-2.51,3.31-5.38,4.72-8.21.36-.72-.18-1.88-.31-2.83-1.04.17-2.33.02-3.06.58-1.48,1.15-2.83,2.56-3.95,4.07-18.21,24.61-36.39,49.25-54.54,73.92-.95,1.29-1.72,2.82-2.11,4.36-.18.72.75,1.72,1.43,3.12Z"/>
  <path class="cls-1" d="M538.23,724.12c-15.94-.43-29.83-3.97-43.4-8.8-5.6-1.99-6.67-4.8-4.29-10.05,10.22-22.57,20.5-45.11,30.82-67.63,2.45-5.35,2.95-5.62,7.8-2.39,9.81,6.53,19.89,12.8,28.97,20.26,8.87,7.29,14.3,17.1,17.2,28.53,4.89,19.31-14.13,37.97-29.01,39.34-3.16.29-6.32.58-8.09.74Z"/>
  <path class="cls-1" d="M641.1,571.62c.61-13.33,1.11-27.45,7.97-40.08,3.22-5.93,7.21-11.79,12.02-16.47,14.74-14.32,38.1-7.56,47.54,5.3,4.23,5.76,7.85,12.25,10.3,18.94,3.43,9.37,5.75,19.18,8.07,28.92,1.74,7.3-.65,10.14-8.19,10.74-17.34,1.38-34.69,2.66-52.04,4.01-6.96.54-13.94,1-20.88,1.77-3.37.38-4.79-.85-4.8-4.08,0-2.79,0-5.59,0-9.05Z"/>
  <path class="cls-1" d="M478.41,497.22c-.03-5.25,2.31-11.17,5.52-16.7,7.13-12.27,15.96-23.26,26.51-32.77,6.28-5.66,8.74-5.29,13.87,1.41,13.75,17.96,27.48,35.94,41.2,53.93,5.71,7.48,5.61,7.37-2.34,12.71-13.25,8.89-27.3,16.04-43.35,17.58-6.41.61-13.3-.2-19.51-1.99-13.2-3.8-21.99-17.71-21.9-34.17Z"/>
  <g>
    <path class="cls-1" d="M617.21,999.57c1.92.75,3.1,1.09,4.17,1.64,5.05,2.62,10.11,5.25,15.09,8.01,1.31.72,2.44,1.84,3.49,2.94,7.8,8.13,5.09,18.55-5.88,20.84-5.6,1.17-11.62,1.01-17.38.57-6.14-.47-12.21-1.99-18.27-3.04.51,4.33-1.04,6.38-5.56,7.22-6.44,1.2-11.69-1.8-12.73-8.28-1.2-7.5-1.87-15.13-2.04-22.72-.18-8.24.38-16.5.87-24.74.15-2.45-.16-3.88-2.61-5.09-4.18-2.06-4.19-6.08.15-7.94,5.99-2.57,11.6-5.8,19.11-3.76,7.47,2.02,15.6,1.5,23.39,2.45,3.1.38,6.18,1.46,9.12,2.62,4.53,1.79,7.75,5,8.21,10.08.45,5.06-2.22,8.78-6.19,11.49-2.72,1.85-5.74,3.25-8.6,4.9-1.26.73-2.45,1.58-4.34,2.81ZM601.99,1006.93c-.89.05-1.81-.03-2.66.19-1.75.46-4.27-.58-4.63,2.64-.55,4.86.43,8.56,3.38,9.1,8.97,1.64,18,3.04,27.05,4.13,1.57.19,3.38-1.52,5.08-2.35-.86-1.71-1.29-4.03-2.66-5.01-7.61-5.4-16.24-8.14-25.56-8.69ZM594.55,996.5c6.85-2.59,12.68-4.59,18.34-7.01,2.63-1.13,5.18-2.77,7.31-4.68,3.46-3.11,2.95-5.92-1.53-6.67-6.7-1.11-13.55-1.33-20.35-1.69-.84-.04-2.43,1.26-2.51,2.06-.56,5.51-.82,11.06-1.26,18Z"/>
    <path class="cls-1" d="M531.52,1037.22c-9.73-1.14-18.04-1.57-26.1-3.25-4.53-.95-8.91-3.53-12.83-6.17-3.21-2.15-3.34-5.75-1.39-8.41,2.31-3.17,5.53-4.01,9.02-2.23,1.47.75,2.91,1.6,4.2,2.62,8.33,6.6,17.98,7.17,27.92,5.94,1.76-.22,3.36-1.8,5.03-2.76-1.24-1.44-2.2-3.44-3.78-4.23-5.56-2.79-11.44-4.95-16.99-7.75-4.96-2.51-10.13-4.97-14.38-8.47-8.82-7.27-8.07-16.53,1.65-22.51,11.68-7.17,24.38-12.07,37.78-14.89,3.41-.72,7.09-.51,10.62-.27,6.42.43,9.37,3.07,10.83,9.33,1.3,5.59.34,10.91-2.55,15.8-2.61,4.42-9.48,6.26-13.81,3.87-2.53-1.39-3.64-3.1-1.39-5.76.88-1.04,1.63-2.32,2.03-3.62,1.61-5.24-.72-8.12-6.1-7.16-8.72,1.57-16.92,4.74-24.13,9.95-5.43,3.93-5.22,7.42.77,10.6,6.61,3.52,13.57,6.39,20.25,9.79,4.4,2.24,8.9,4.5,12.8,7.47,7.42,5.66,6.69,13.35-1.82,16.96-5.99,2.54-12.57,3.71-17.64,5.14Z"/>
    <path class="cls-1" d="M720.18,993.89c3.31,2.87,5.95,5.21,8.64,7.48,3.33,2.8,3.18,5.44-.5,7.84-3.98,2.6-9.49,2.5-13.17-.67-2.77-2.39-5.35-5.08-7.65-7.94-1.74-2.16-3.46-2.6-5.92-1.66-5.56,2.14-11.24,4.01-16.73,6.31-5.66,2.37-6.77,5.16-5.07,11.19.67,2.36,2.44,4.84-.33,6.94-3.12,2.37-6.64,3.12-10.42,1.81-3.36-1.16-4.3-4-3.99-7.04,1.55-15.02,3.14-30.04,5.06-45.01.77-6.02,2.34-11.95,3.66-17.9,1.01-4.56,3.99-7.17,8.51-8.22,5.36-1.25,8.26.1,11.07,4.83,5.76,9.71,11.71,19.31,17.5,29.01,1.31,2.2,2.82,3.45,5.51,2.73.84-.22,1.77-.14,2.66-.12,2.9.08,5.79.32,6.41,3.97.56,3.31-1.09,5.3-5.25,6.44ZM681.28,994.73c5.95-2.31,11.07-4.29,16.47-6.38-4.33-6.17-8.14-11.59-11.95-17.02-1.81,5.42-2.75,10.51-3.59,15.62-.37,2.23-.54,4.48-.92,7.78Z"/>
    <path class="cls-1" d="M432.56,1015.11c-2.54.04-5.73.27-8.89.09-6.72-.39-8.99-2.74-8.45-9.39.38-4.65,1.25-9.33,2.44-13.85,3.08-11.66,6.52-23.22,9.64-34.87.4-1.49.14-3.46-.54-4.86-1.71-3.53-.84-6.29,2.98-7.34,1.52-.42,3.32-.48,4.86-.13,14.32,3.26,26.45,10.38,36.04,21.46,6.71,7.74,9.43,16.64,6.33,26.91-2,6.62-6.18,11.28-11.97,14.67-9.83,5.76-20.5,8-32.46,7.3ZM430.21,1003.38c10.06,3.46,25.48-1.56,30.38-9.36,1.18-1.88,2.02-4.14,2.43-6.33,1.88-9.99-8.93-24.59-20.76-27.09-4.01,14.24-8.04,28.54-12.05,42.78Z"/>
  </g>
  <path class="cls-1" d="M770.43,959.28c.08,5.03-4.06,9.4-9.01,9.51-5.1.11-9.69-4.21-9.79-9.23-.1-4.98,4.43-9.53,9.49-9.54,4.93,0,9.23,4.27,9.31,9.26Z"/>
  <path class="cls-1" d="M1006.84,498.54c.08,5.03-4.06,9.4-9.01,9.51-5.1.11-9.69-4.21-9.79-9.23-.1-4.98,4.43-9.53,9.49-9.54,4.93,0,9.23,4.27,9.31,9.26Z"/>
  <path class="cls-1" d="M149.59,498.54c.08,5.03-4.06,9.4-9.01,9.51-5.1.11-9.69-4.21-9.79-9.23-.1-4.98,4.43-9.53,9.49-9.54,4.93,0,9.23,4.27,9.31,9.26Z"/>
  <path class="cls-1" d="M380.36,954.14c-.27,5.13-4.86,9.23-9.99,8.92-4.97-.3-8.85-4.69-8.67-9.82.18-5.06,4.48-9.06,9.54-8.88,5.22.19,9.38,4.65,9.11,9.78Z"/>
  <g>
    <path class="cls-1" d="M193.14,341.37c.47.53.79,1.07,1.26,1.39,10.13,7.04,20.13,14.32,32.01,18.24,2.73.9,3.2,2.34,2.51,4.86-2.56,9.38-8.7,12.48-17.28,7.95-14.66-7.75-28.15-17.27-40.54-28.31-1.13-1.01-2.14-2.18-3.09-3.37-4.95-6.2-3.42-14.54,3.47-18.63.89-.53,2.14-.69,3.21-.64,7.71.31,15.41,1.02,23.12,1,8.09-.02,16.18-.73,24.27-1.13.09-.33.19-.65.28-.98-1.8-1.29-3.64-2.53-5.39-3.88-7.24-5.57-14.75-10.85-21.59-16.89-5.11-4.52-5.04-9.89-1.06-14.96,3.21-4.09,5.36-4.47,9.05-.9,11.04,10.7,23.79,19.07,36.78,27.07,4.63,2.85,9.57,5.24,14.47,7.62,2.18,1.06,2.95,2.38,1.87,4.5-2.96,5.76-6.13,11.05-13.72,11.66-14.68,1.19-29.33,2.75-43.99,4.15-1.52.15-3.03.28-4.54.49-.31.04-.58.39-1.1.76Z"/>
    <path class="cls-1" d="M190.68,405.61c1.77,4.15,3.59,7.66,4.8,11.37,5.13,15.78-9.62,34.94-26.21,33.93-4-.24-8.11-1.1-11.87-2.5-12.59-4.71-23.39-12.25-32.55-22.07-4.68-5.02-3.28-14.23,2.69-17.59.91-.51,2.81-.29,3.69.35,2.34,1.72,4.45,3.78,6.51,5.85,8.5,8.56,18.59,14.53,29.91,18.52,1.32.46,2.66.9,4.03,1.17,7.19,1.41,12.62-4.31,10.7-11.43-2.12-7.86-7.08-14.04-12.52-19.78-7.68-8.11-16.64-14.54-26.8-19.24-5.71-2.64-6.48-4.57-4.18-10.53,3.76-9.75,6.01-10.47,15.02-5.08,9.05,5.41,18.03,10.95,27.28,15.99,6.56,3.57,13.68,5.29,21.34,4.36,4.26-.52,6.41,2.67,5.39,7.28-1.23,5.54-7.52,10.17-13.42,9.84-1.12-.06-2.23-.25-3.83-.43Z"/>
    <path class="cls-1" d="M710.06,181.53c-3.08,1.79-5.56,3.32-8.12,4.68-16.5,8.78-38.87-4.71-38.7-23.43.03-3.64.57-7.4,1.59-10.89,3.83-13.02,10.5-24.5,19.77-34.42,4.46-4.77,13.98-3.92,17.47,1.58.57.9.49,2.79-.09,3.74-1.45,2.37-3.26,4.54-5.09,6.65-7.9,9.12-13.13,19.61-16.27,31.2-.36,1.35-.71,2.72-.89,4.1-1.01,7.54,5.13,12.87,12.18,9.98,4.49-1.85,8.75-4.7,12.48-7.85,10.81-9.15,18.16-20.83,23.25-33.95,2.37-6.1,4.18-7.12,10.37-5.27,10,2.99,10.81,5.11,6.13,14.64-5.04,10.26-10.07,20.52-14.7,30.97-2.56,5.77-3.03,12-1.89,18.34.88,4.92-1.81,7.36-6.81,6.61-5.48-.83-10.57-6.61-10.77-12.28-.04-1.25.04-2.51.09-4.39Z"/>
    <path class="cls-1" d="M600.72,140.96c10.42.92,20.26,1.79,30.41,2.68.49-1.74,1.06-3.28,1.36-4.87,2.04-10.69,3.97-21.4,6.13-32.07.18-.89,1.76-2.19,2.62-2.15,4.12.23,8.36.35,12.27,1.5,3.17.93,4.1,3.6,3.2,7.36-3.72,15.57-7.17,31.2-10.36,46.89-.77,3.77-.5,7.84-.11,11.71.33,3.24-.94,4.68-3.81,4.73-2.64.05-5.36-.16-7.92-.75-3.97-.92-6.06-3.57-6.09-7.68-.02-3.42.29-6.86.72-10.26.27-2.1-.39-3.22-2.43-3.39-8.74-.71-17.47-1.43-26.22-1.91-.76-.04-2.24,1.63-2.31,2.59-.31,4.03-.49,8.11-.18,12.13.19,2.46-.59,4.07-2.77,3.99-3.71-.13-7.68-.28-11-1.68-1.9-.8-3.26-3.95-3.91-6.3-.61-2.22-.1-4.79.15-7.19.31-3.04.77-5.73-2.29-8.1-2.39-1.85-1.52-5.48,1.43-6.41,2.83-.9,3.7-2.7,4.19-5.21,2.23-11.47,4.43-22.94,6.87-34.36.26-1.23,1.92-2.8,3.15-3.04,2.18-.42,4.57-.18,6.8.21,7.29,1.26,8.93,3.88,7.17,11-1.95,7.9-3.93,15.79-5.83,23.71-.5,2.07-.75,4.21-1.22,6.86Z"/>
    <path class="cls-1" d="M939.5,419.16c-1.33-5.03-3.14-9.99-3.83-15.11-.51-3.78.07-7.83.84-11.62.6-2.94,2.91-4.92,6.23-4.33,3.31.59,6.18,2.18,6.44,5.98.18,2.5-.09,5.08-.51,7.57-1.88,10.95,2.25,20.22,8.03,28.99.77,1.16,2.63,1.6,3.99,2.37.71-1.38,2.01-2.76,2.01-4.15.02-6.47-.53-12.95-.46-19.42.06-6.07-.14-12.3,1.15-18.15,2.57-11.67,11.37-14.99,21.25-8.23,11.72,8.01,21.91,17.79,30.3,29.26,2.35,3.21,3.78,7.17,5.26,10.93,1.84,4.68.43,8.76-3.26,12.03-4.63,4.1-10.1,5.82-16.21,5.21-5.11-.51-9.78-6.05-9.67-11.16.07-3.52,1.26-4.48,4.74-3.86.75.13,1.61.55,2.23.32,2.29-.83,5.2-1.35,6.51-3.04.85-1.1-.08-4.45-1.23-6.08-5.26-7.43-11.7-13.76-19.71-18.23-5.74-3.21-8.72-1.59-8.95,5.04-.26,7.61.18,15.24.16,22.86-.02,4.69-.08,9.41-.6,14.06-.5,4.51-1.78,9.05-6.73,10.65-4.91,1.59-8.57-1.35-11.8-4.55-5.37-5.33-9.78-11.34-12.4-18.54-1.09-2.98-2.31-5.92-3.46-8.88-.11.03-.21.06-.32.08Z"/>
    <path class="cls-1" d="M545.93,171.66c-12.64,2.6-24.72,4.19-36.94,3.05-3.41-.32-6.84-1.91-9.95-3.51-2.94-1.51-4.46-4.19-2.93-7.68,1.54-3.51,4.76-5.25,8.35-4.29,2.2.59,4.35,1.44,6.41,2.41,10.06,4.75,20.1,3.11,30.06-.2,1.28-.43,2.12-2.17,3.17-3.3-1.07-.97-1.99-2.47-3.24-2.81-6.37-1.75-12.84-3.11-19.22-4.78-4.66-1.22-9.39-2.39-13.82-4.21-2.97-1.22-5.82-3.21-8.14-5.47-4.54-4.43-4.73-10.11-.91-15.17,1.21-1.61,2.64-3.13,4.22-4.38,10.7-8.5,22.18-15.79,35.03-20.54,4.2-1.55,8.9-1.92,13.41-2.38,3.85-.4,6.9,1.51,8.92,4.8,3.72,6.08,4.06,12.52,1.36,19-1.88,4.52-8.67,7.31-13.26,5.8-2.75-.91-4.13-2.37-2.4-5.4.73-1.28,1.27-2.81,1.41-4.28.5-5.08-2.07-7.3-6.88-5.71-8.93,2.95-16.88,7.72-23.57,14.32-4.8,4.74-3.98,8.18,2.54,10.19,7.28,2.25,14.77,3.77,22.09,5.89,5.23,1.52,10.58,2.99,15.41,5.4,8.21,4.09,8.64,11.46,1.1,16.69-3.93,2.72-8.44,4.59-12.2,6.59Z"/>
    <path class="cls-1" d="M935.19,330.51c4.53,7.4,8.6,13.98,12.58,20.6,1.17,1.95,2.4,3.96,3.06,6.11.86,2.78.88,5.83-2.37,7.18-3.05,1.27-5.39-.25-7.07-2.9-4.48-7.08-9.11-14.08-13.41-21.28-2.02-3.37-4.18-3.95-7.32-1.79-.83.57-1.81.93-2.69,1.43-3.84,2.21-4.19,4.38-1.75,8.08,4.96,7.53,9.91,15.08,14.55,22.81,1.38,2.3,2.02,5.18,2.46,7.89.4,2.47-.79,4.54-3.48,5.12-2.79.6-5.74.45-6.84-2.6-5.13-14.29-15.56-25.24-23.46-37.78-4.19-6.65-3.91-8.89,2.53-13.51,2.68-1.92,5.53-3.62,8.44-5.19,2.88-1.55,5.32-3.3,6.45-6.6.88-2.57,2.67-3.31,5.46-2.3,1.48.53,3.52.4,5.02-.17,5.34-2.04,10.63-4.25,15.78-6.71,2.53-1.21,4.87-2.97,7.03-4.79,1.97-1.66,3.89-2.01,5.84-.48,2.09,1.64,4.34,3.31,5.81,5.45,6.76,9.82,13.35,19.76,19.79,29.78,1.19,1.85,1.96,4.29,2,6.47.03,1.72-1.04,4.56-2.23,4.93-1.84.57-4.37-.19-6.26-1.09-1.16-.55-1.67-2.45-2.49-3.72-4.48-6.92-8.98-13.84-13.46-20.76-1.45-2.24-3.32-2.99-5.85-1.9-5.81,2.5-11.64,4.97-18.1,7.72Z"/>
    <path class="cls-1" d="M339.32,201.88c8.33-4.85,15.65-9.16,23.04-13.36,1.63-.93,3.45-1.74,5.28-2.03,2.47-.39,5.45.05,5.82,2.88.26,1.97-.79,4.84-2.28,6.16-2.51,2.22-5.89,3.43-8.8,5.25-4.96,3.09-9.8,6.36-14.75,9.46-1.93,1.21-2.47,2.35-1.41,4.64,4.35,9.33,4.97,9.47,13.65,3.88,6.51-4.19,13.19-8.14,19.97-11.88,2.25-1.24,5-1.8,7.58-2.13,2.68-.34,4.71,1,5.16,3.91.44,2.86,0,5.59-3.1,6.59-10.49,3.36-18.98,10.15-27.99,16.06-4.03,2.65-8.05,5.33-12.17,7.84-3.92,2.39-6.14,2.23-8.96-1.39-2.87-3.68-4.97-7.95-7.71-11.74-1.56-2.16-3.51-4.22-5.71-5.68-2.48-1.65-3.73-3.06-2.41-6.17.55-1.3.28-3.24-.24-4.66-2.06-5.6-4.21-11.18-6.64-16.63-1.04-2.33-2.67-4.48-4.37-6.41-1.73-1.97-2.05-3.91-.47-5.8,2.03-2.41,4.1-4.99,6.68-6.72,9.17-6.13,18.5-12.02,27.91-17.79,2.11-1.29,4.73-2.2,7.17-2.34,1.83-.11,5.14,1.04,5.33,2.07.38,2.13-.64,4.67-1.59,6.81-.42.94-2.08,1.31-3.16,1.98-7.11,4.41-14.3,8.71-21.25,13.35-1.22.82-2.42,3.4-2.01,4.63,2.12,6.33,4.76,12.49,7.41,19.21Z"/>
    <path class="cls-1" d="M391.21,171.18c-2.03-6.29-3.92-12.63-6.19-18.83-.6-1.64-2.14-3.26-3.67-4.18-2.93-1.75-3.96-4.13-1.93-6.87,1.08-1.46,2.66-2.84,4.31-3.55,14.36-6.14,29.26-7.45,44.41-3.79,9.36,2.27,16.54,7.5,20.04,17.02,2.34,6.35,1.98,12.48-.69,18.54-4.09,9.29-10.36,16.84-18.59,22.76-3.71,2.67-7.5,5.24-11.23,7.89-7.56,5.35-11.53,4.63-15.73-3.72-3.13-6.23-5.5-12.84-8.13-19.31-.81-2-1.35-4.1-2.01-6.16-.2.06-.4.13-.6.19ZM400.43,145.05c3.15,14.62,8.58,27.89,14.19,41.09.26.61,2.49,1.09,3.24.66,7.6-4.39,13.47-10.41,16.34-18.89,2.34-6.91.1-14.33-5.79-18.31-8.37-5.65-17.65-6.51-27.98-4.55Z"/>
    <path class="cls-1" d="M779.35,162.55c-5.19-2.76-10.07-5.4-15-7.96-2.95-1.53-4.81-3.69-4.79-7.16.02-4.17,2.87-6.27,6.81-4.99.72.23,1.45.5,2.12.85,16.59,8.58,33.18,17.14,49.74,25.79,2.01,1.05,3.92,2.4,5.63,3.89,2.4,2.09,2.3,4.7.65,7.22-1.59,2.43-3.85,2.75-6.34,1.46-6.21-3.21-12.44-6.39-18.56-9.75-2.41-1.33-4-1.17-5.78,1.09-9.14,11.61-17.57,23.68-24.13,36.96-1.17,2.37-2.12,4.92-2.65,7.5-.52,2.51-1.79,3.26-4,2.68-11.34-2.99-14.34-8.37-9.16-17.05,7.48-12.54,15.42-24.8,23.17-37.17.73-1.16,1.54-2.26,2.29-3.35Z"/>
    <path class="cls-1" d="M262.2,232.63c-4.39,4.11-8.45,7.9-12.49,11.71-2.31,2.18-4.94,3.04-8.04,2-4.14-1.38-5.18-4.89-2.47-8.3.39-.5.81-.99,1.27-1.41,14.1-12.8,28.19-25.6,42.32-38.35,1.4-1.27,3.01-2.35,4.66-3.28,2.75-1.55,5.19-.78,7.09,1.56,1.97,2.42,1.44,4.75-.73,6.74-5.15,4.71-10.28,9.45-15.59,13.99-2.2,1.88-2.44,3.64-.82,5.84,8.38,11.46,16.65,23,25.22,34.31,1.94,2.56,5.03,4.22,7.32,6.55.81.82,1.51,3.08,1.05,3.59-2.57,2.86-5.19,5.96-8.43,7.89-3.35,1.99-6.85.06-9.14-2.7-7.86-9.46-15.57-19.05-23.2-28.7-2.8-3.54-5.21-7.4-8.03-11.44Z"/>
    <path class="cls-1" d="M848.95,205.7c-4.92-3.66-9.57-6.79-13.78-10.42-1.65-1.42-3.12-3.91-3.24-5.99-.11-1.88,1.31-4.39,2.86-5.63.95-.76,3.85-.24,5.11.72,16.39,12.46,32.65,25.1,48.93,37.71.5.38.89.9,1.32,1.37,2.25,2.49,2.19,5.1.09,7.55-2.13,2.5-4.62,2.31-7.09.4-5.33-4.12-10.73-8.16-15.94-12.44-2.41-1.98-4.24-2.17-6.47.19-9.35,9.86-18.91,19.52-28.1,29.51-2.52,2.74-3.92,6.48-6.06,9.61-.62.91-2.54,2.06-3,1.76-3.44-2.22-7.26-4.29-9.79-7.37-2.54-3.11-.76-6.95,1.64-9.78,7.72-9.11,15.55-18.13,23.47-27.07,3.02-3.4,6.41-6.47,10.06-10.12Z"/>
    <path class="cls-1" d="M871.7,290.29c5.91,6.61,11.23,12.41,16.37,18.35,2.23,2.58,4.36,5.32,6.09,8.25,1.9,3.22,1.11,6.58-1.39,8.14-2.76,1.72-5.53.6-8.14-2.38-8.94-10.21-18.08-20.25-27.11-30.38-1.85-2.07-3.94-4.06-5.25-6.45-2.17-3.96.07-6.9,4.54-6.68,1.11.05,2.43-.45,3.35-1.12,13.58-9.81,27.12-19.68,40.64-29.56,1.43-1.04,2.99-2.06,4.04-3.43,2.08-2.74,4.05-2.81,6.76-.84,3.79,2.75,5.61,6.59,6.27,10.91.2,1.3-1.03,3.39-2.22,4.22-6.46,4.5-13.23,8.54-19.66,13.07-8.06,5.69-15.9,11.7-24.28,17.91Z"/>
    <path class="cls-1" d="M225.39,253.33c.82.41,2.67.89,3.88,2.03,4.71,4.44,9.03,9.3,13.85,13.61,7.94,7.1,16.07,14.01,24.32,20.76,2.4,1.96,5.36,3.39,8.27,4.52,2.7,1.05,3.35,2.76,2.35,5.03-4.32,9.81-9.72,13.63-18.47,6.4-11.25-9.29-22.11-19.06-33.16-28.6-3.26-2.82-6.71-5.44-9.82-8.41-.99-.94-1.89-2.92-1.59-4.12,1.27-5.03,4.2-8.91,10.37-11.22Z"/>
  </g>
  <path class="cls-1" d="M902.85,899.59c-2.04,1.71-3.54,3.1-5.17,4.31-7.44,5.55-15.12,10.66-24.14,13.42-10.7,3.28-20.83,1.96-30.49-3.45-2.94-1.65-3.09-2.67-1.09-5.38,8.76-11.88,20.87-16.46,35.13-14.97,7.32.76,14.48,2.99,21.71,4.61,1.16.26,2.25.8,4.05,1.46Z"/>
  <path class="cls-1" d="M832.66,862.13c.4,2.08.83,3.79,1.04,5.53,1.15,9.63,1.85,19.28-.12,28.9-2.55,12.46-10.1,20.88-21.95,26.41-1.26-3.81-2.8-7.52-3.72-11.38-2.23-9.33-.4-18.13,4.47-26.25,4.97-8.3,11.53-15.32,18.41-22.04.39-.38.94-.58,1.88-1.15Z"/>
  <path class="cls-1" d="M897.11,787.84c.68,2,1.34,3.64,1.79,5.33,2.46,9.39,4.47,18.85,3.84,28.64-.82,12.69-7.15,22.07-18.12,29.17-1.77-3.6-3.8-7.07-5.25-10.77-3.49-8.93-2.88-17.9.82-26.62,3.78-8.9,9.32-16.76,15.21-24.36.33-.43.85-.71,1.7-1.4Z"/>
  <path class="cls-1" d="M915.71,745.93c1.03,1.84,1.99,3.33,2.74,4.91,4.15,8.77,7.87,17.7,9.05,27.44,1.53,12.63-2.96,23.01-12.44,32.01-2.41-3.21-5.04-6.25-7.14-9.62-5.07-8.14-6.13-17.07-4.09-26.31,2.08-9.44,6.07-18.19,10.47-26.75.25-.48.7-.85,1.42-1.69Z"/>
  <path class="cls-1" d="M929.77,701.78c1.44,1.54,2.72,2.76,3.83,4.12,6.12,7.53,11.85,15.32,15.31,24.51,4.49,11.9,2.59,23.05-4.47,34.05-3.1-2.55-6.38-4.87-9.22-7.64-6.86-6.7-10.01-15.12-10.23-24.59-.23-9.67,1.57-19.11,3.81-28.47.13-.52.48-.99.97-1.98Z"/>
  <path class="cls-1" d="M936.19,664.16c1.84,1.04,3.42,1.83,4.88,2.8,8.08,5.37,15.87,11.11,21.91,18.84,7.83,10.03,9.33,21.24,5.86,33.84-3.72-1.51-7.54-2.75-11.08-4.55-8.54-4.36-14.05-11.46-17.08-20.43-3.09-9.16-4.18-18.71-4.83-28.31-.04-.54.16-1.09.34-2.18Z"/>
  <path class="cls-1" d="M948.49,622.8c1.81,1.09,3.38,1.91,4.81,2.91,7.95,5.57,15.6,11.49,21.45,19.37,7.58,10.22,8.81,21.46,5.04,33.97-3.68-1.6-7.47-2.93-10.96-4.82-8.44-4.56-13.77-11.8-16.58-20.84-2.87-9.23-3.73-18.81-4.14-28.42-.02-.54.19-1.09.39-2.17Z"/>
  <path class="cls-1" d="M961.18,574.83c1.6,1.38,3,2.45,4.25,3.68,6.89,6.83,13.43,13.96,17.87,22.71,5.75,11.35,5.06,22.64-.77,34.33-3.36-2.2-6.87-4.15-9.99-6.6-7.54-5.92-11.58-13.95-12.82-23.34-1.27-9.59-.5-19.17.72-28.71.07-.53.37-1.04.75-2.07Z"/>
  <path class="cls-1" d="M866.12,932.72c-3.27,1.96-6.45,4.09-9.84,5.83-7.03,3.61-14.13,7.18-21.98,8.64-11.09,2.07-21.19-.25-30-7.52-.99-.81-1.01-1.51-.22-2.49,3.84-4.79,8.43-8.29,14.13-10.93,11.79-5.46,23.22-3.21,34.76.24,3.2.96,6.34,2.14,9.45,3.34,1.28.49,2.43,1.32,3.64,1.99.02.3.03.6.05.9Z"/>
  <path class="cls-1" d="M931.03,856.02c-.65,1.18-.99,1.97-1.47,2.64-7.21,10.02-15.41,18.98-26.35,25.13-3.65,2.05-7.5,2.99-11.56,3.35-5.08.45-10.08-.11-15-1.47-1.8-.49-2.32-1.63-1.72-3.21,3.78-9.98,9.27-18.16,20.06-22.09,10.38-3.78,20.86-5.54,31.83-4.77,1.26.09,2.52.24,4.22.41Z"/>
  <path class="cls-1" d="M957.8,811.41c-.54,1.24-.8,2.05-1.22,2.77-6.25,10.65-13.57,20.33-23.89,27.48-3.45,2.38-7.19,3.68-11.2,4.41-5.02.92-10.04.83-15.07-.06-1.84-.33-2.46-1.4-2.01-3.04,2.84-10.29,7.54-18.94,17.91-23.86,9.98-4.73,20.26-7.46,31.24-7.71,1.26-.03,2.53,0,4.24.01Z"/>
  <path class="cls-1" d="M986.68,769.11c-.54,1.24-.8,2.05-1.22,2.77-6.25,10.65-13.57,20.33-23.89,27.48-3.45,2.38-7.19,3.68-11.2,4.41-5.02.92-10.04.83-15.07-.06-1.84-.33-2.46-1.4-2.01-3.04,2.84-10.29,7.54-18.94,17.91-23.86,9.98-4.73,20.26-7.46,31.24-7.71,1.26-.03,2.53,0,4.24.01Z"/>
  <path class="cls-1" d="M1001.54,716.32c-.21,1.33-.26,2.19-.48,2.99-3.36,11.88-7.99,23.1-16.17,32.62-2.73,3.18-6.03,5.38-9.72,7.1-4.62,2.16-9.51,3.34-14.6,3.75-1.86.15-2.74-.73-2.71-2.43.14-10.67,2.5-20.23,11.3-27.61,8.46-7.1,17.71-12.34,28.28-15.36,1.22-.35,2.45-.63,4.11-1.06Z"/>
  <path class="cls-1" d="M1022.97,659.81c-.21,1.33-.26,2.19-.48,2.99-3.36,11.88-7.99,23.1-16.17,32.62-2.73,3.18-6.03,5.38-9.72,7.1-4.62,2.16-9.51,3.34-14.6,3.75-1.86.15-2.74-.73-2.71-2.43.14-10.67,2.5-20.23,11.3-27.61,8.46-7.1,17.71-12.34,28.28-15.36,1.22-.35,2.45-.63,4.11-1.06Z"/>
  <path class="cls-1" d="M1025.38,601.95c.07,1.35.21,2.19.15,3.02-.79,12.32-2.97,24.26-8.97,35.29-2,3.68-4.77,6.52-8.02,8.98-4.07,3.08-8.6,5.26-13.49,6.73-1.79.54-2.83-.14-3.16-1.81-2.1-10.46-1.79-20.31,5.26-29.37,6.78-8.71,14.74-15.77,24.43-20.94,1.12-.59,2.26-1.13,3.8-1.9Z"/>
  <path class="cls-1" d="M1008.41,545.85c.53,1.24.94,1.99,1.17,2.79,3.42,11.86,5.41,23.84,3.49,36.24-.64,4.14-2.28,7.75-4.51,11.16-2.79,4.27-6.31,7.86-10.42,10.89-1.5,1.11-2.71.82-3.59-.63-5.51-9.14-8.56-18.51-4.98-29.42,3.44-10.49,8.53-19.83,15.91-27.97.85-.94,1.75-1.83,2.93-3.07Z"/>
  <path class="cls-1" d="M866.9,824.54c.55,1.88,1.21,3.6,1.56,5.39,1.8,9.18,3.13,18.42,2.55,27.8-.72,11.77-6.64,20.65-15.91,27.52-2.23,1.65-3.03,1.45-4.82-.73-2.56-3.13-3.18-6.96-3.73-10.76-.54-3.73-.84-7.5-1.12-11.27-.44-5.92,1.93-11.12,5.06-15.8,4.95-7.38,10.4-14.43,15.64-21.61.12-.16.33-.24.76-.55Z"/>
  <g>
    <path class="cls-1" d="M234.06,897.97c2.04,1.71,3.54,3.1,5.17,4.31,7.44,5.55,15.12,10.66,24.14,13.42,10.7,3.28,20.83,1.96,30.49-3.45,2.94-1.65,3.09-2.67,1.09-5.38-8.76-11.88-20.87-16.46-35.13-14.97-7.32.76-14.48,2.99-21.71,4.61-1.16.26-2.25.8-4.05,1.46Z"/>
    <path class="cls-1" d="M304.56,854.19c-.65,2.01-1.29,3.66-1.72,5.36-2.34,9.42-4.23,18.9-3.47,28.69.98,12.68,7.43,21.98,18.49,28.94,1.73-3.62,3.71-7.12,5.11-10.83,3.37-8.98,2.65-17.94-1.16-26.6-3.9-8.85-9.53-16.64-15.52-24.17-.34-.42-.86-.7-1.72-1.38Z"/>
    <path class="cls-1" d="M245.14,784.44c-.98,1.87-1.9,3.38-2.6,4.99-3.91,8.88-7.38,17.91-8.3,27.68-1.19,12.67,3.58,22.92,13.3,31.66,2.32-3.27,4.87-6.38,6.88-9.81,4.85-8.27,5.66-17.23,3.38-26.42-2.34-9.38-6.56-18.01-11.19-26.45-.26-.47-.73-.83-1.46-1.65Z"/>
    <path class="cls-1" d="M201.06,705.13c-1.44,1.55-2.71,2.77-3.82,4.13-6.1,7.55-11.81,15.36-15.24,24.55-4.46,11.92-2.53,23.06,4.57,34.03,3.09-2.55,6.37-4.89,9.2-7.67,6.84-6.72,9.97-15.15,10.16-24.61.2-9.67-1.63-19.1-3.89-28.46-.13-.52-.48-.99-.98-1.98Z"/>
    <path class="cls-1" d="M272.37,930.5c3.27,1.96,6.45,4.09,9.84,5.83,7.03,3.61,14.13,7.18,21.98,8.64,11.09,2.07,21.19-.25,30-7.52.99-.81,1.01-1.51.22-2.49-3.84-4.79-8.43-8.29-14.13-10.93-11.79-5.46-23.22-3.21-34.76.24-3.2.96-6.34,2.14-9.45,3.34-1.28.49-2.43,1.32-3.64,1.99-.02.3-.03.6-.05.9Z"/>
    <path class="cls-1" d="M200.84,857.47c.65,1.18.99,1.97,1.47,2.64,7.21,10.02,15.41,18.98,26.35,25.13,3.65,2.05,7.5,2.99,11.56,3.35,5.08.45,10.08-.11,15-1.47,1.8-.49,2.32-1.63,1.72-3.21-3.78-9.98-9.27-18.16-20.06-22.09-10.38-3.78-20.86-5.54-31.83-4.77-1.26.09-2.52.24-4.22.41Z"/>
    <path class="cls-1" d="M174.07,812.86c.54,1.24.8,2.05,1.22,2.77,6.25,10.65,13.57,20.33,23.89,27.48,3.45,2.38,7.19,3.68,11.2,4.41,5.02.92,10.04.83,15.07-.06,1.84-.33,2.46-1.4,2.01-3.04-2.84-10.29-7.54-18.94-17.91-23.86-9.98-4.73-20.26-7.46-31.24-7.71-1.26-.03-2.53,0-4.24.01Z"/>
    <path class="cls-1" d="M145.61,775.33c.69,1.16,1.05,1.93,1.56,2.59,7.55,9.76,16.05,18.44,27.2,24.21,3.72,1.93,7.6,2.73,11.67,2.95,5.09.27,10.07-.46,14.94-1.98,1.78-.56,2.26-1.7,1.61-3.27-4.12-9.84-9.89-17.83-20.8-21.39-10.5-3.42-21.04-4.82-31.97-3.67-1.26.13-2.51.33-4.21.55Z"/>
    <path class="cls-1" d="M129.33,719.88c.21,1.33.26,2.19.49,2.99,3.39,11.87,8.05,23.08,16.26,32.58,2.74,3.17,6.04,5.36,9.74,7.08,4.63,2.14,9.52,3.31,14.61,3.71,1.86.14,2.74-.74,2.71-2.44-.17-10.67-2.56-20.23-11.37-27.58-8.48-7.07-17.75-12.29-28.32-15.28-1.22-.34-2.45-.63-4.11-1.05Z"/>
    <path class="cls-1" d="M277.79,820.4c-.96,1.7-2,3.23-2.74,4.89-3.83,8.53-7.22,17.23-8.78,26.5-1.96,11.63,1.79,21.62,9.26,30.41,1.8,2.11,2.63,2.1,4.86.38,3.21-2.46,4.68-6.06,6.07-9.63,1.37-3.51,2.52-7.12,3.65-10.72,1.77-5.67.64-11.27-1.35-16.53-3.15-8.31-6.86-16.41-10.34-24.59-.08-.18-.27-.31-.62-.71Z"/>
    <path class="cls-1" d="M213.61,745.19c-.76,1.8-1.62,3.44-2.17,5.17-2.83,8.91-5.22,17.94-5.72,27.32-.63,11.78,4.23,21.28,12.65,29.16,2.03,1.9,2.85,1.79,4.87-.17,2.91-2.81,3.96-6.55,4.94-10.26.96-3.65,1.7-7.36,2.41-11.07,1.12-5.83-.64-11.27-3.22-16.27-4.07-7.9-8.68-15.52-13.07-23.26-.1-.17-.3-.28-.7-.63Z"/>
    <path class="cls-1" d="M193.6,666.19c-1.83,1.05-3.42,1.84-4.87,2.81-8.07,5.4-15.84,11.15-21.86,18.9-7.8,10.05-9.27,21.26-5.77,33.85,3.71-1.52,7.53-2.77,11.06-4.58,8.53-4.38,14.02-11.5,17.02-20.48,3.07-9.17,4.13-18.72,4.75-28.33.03-.54-.17-1.09-.35-2.18Z"/>
    <path class="cls-1" d="M181.19,624.87c-1.81,1.09-3.37,1.92-4.8,2.93-7.93,5.59-15.56,11.53-21.39,19.43-7.55,10.24-8.76,21.48-4.94,33.98,3.68-1.61,7.46-2.95,10.95-4.85,8.42-4.59,13.74-11.83,16.52-20.89,2.84-9.24,3.67-18.82,4.06-28.43.02-.54-.19-1.09-.4-2.17Z"/>
    <path class="cls-1" d="M168.36,576.94c-1.6,1.38-3,2.46-4.24,3.7-6.87,6.85-13.39,13.99-17.8,22.76-5.71,11.37-5,22.65.87,34.33,3.35-2.21,6.86-4.17,9.97-6.63,7.53-5.94,11.54-13.98,12.76-23.38,1.24-9.59.44-19.17-.8-28.71-.07-.53-.37-1.04-.76-2.07Z"/>
    <path class="cls-1" d="M106.81,662.09c.21,1.33.26,2.19.49,2.99,3.39,11.87,8.05,23.08,16.26,32.58,2.74,3.17,6.04,5.36,9.74,7.08,4.63,2.14,9.52,3.31,14.61,3.71,1.86.14,2.74-.74,2.71-2.44-.17-10.67-2.56-20.23-11.37-27.58-8.48-7.07-17.75-12.29-28.32-15.28-1.22-.34-2.45-.63-4.11-1.05Z"/>
    <path class="cls-1" d="M104.24,604.24c-.07,1.35-.2,2.19-.15,3.02.83,12.32,3.04,24.26,9.07,35.26,2.01,3.67,4.79,6.51,8.04,8.96,4.08,3.07,8.61,5.23,13.51,6.69,1.79.53,2.83-.15,3.16-1.82,2.07-10.47,1.74-20.32-5.34-29.35-6.81-8.69-14.78-15.73-24.49-20.88-1.12-.59-2.26-1.13-3.8-1.89Z"/>
    <path class="cls-1" d="M121.05,548.08c-.52,1.24-.93,1.99-1.16,2.8-3.39,11.87-5.34,23.85-3.39,36.25.65,4.14,2.3,7.74,4.54,11.15,2.8,4.26,6.33,7.84,10.45,10.86,1.5,1.1,2.71.81,3.59-.64,5.49-9.15,8.5-18.53,4.9-29.43-3.47-10.48-8.59-19.8-15.99-27.93-.85-.93-1.75-1.82-2.94-3.06Z"/>
  </g>
</svg>